<svg height="512" width="512" xmlns="http://www.w3.org/2000/svg"><path d="M512 256c0 141.385-114.615 256-256 256S0 397.385 0 256 114.615 0 256 0s256 114.615 256 256z" fill="#00b3ce"/><path d="M478.096 256c0 122.66-99.436 222.096-222.096 222.096S33.904 378.66 33.904 256 133.34 33.904 256 33.904 478.096 133.34 478.096 256z" fill="#00bfd8"/><path d="M429.932 256c0 96.06-77.872 173.933-173.933 173.933S82.067 352.06 82.067 256 159.94 82.067 256 82.067 429.932 159.94 429.932 256z" fill="#dd8858"/><path d="M415.489 268.659a7.5 7.5 0 1 1-15 0 7.5 7.5 0 0 1 15 0zm-23.585-39.999a7.5 7.5 0 1 0 0 15 7.5 7.5 0 0 0 0-15zM375.053 333a7.5 7.5 0 1 0 0 15 7.5 7.5 0 0 0 0-15zM315.5 367.755a7.5 7.5 0 1 0 0 15 7.5 7.5 0 0 0 0-15zm0-253.41a7.5 7.5 0 1 0 0 15 7.5 7.5 0 0 0 0-15z" fill="#ca6d36"/><path d="M373 256c0 64.617-52.383 117-117 117s-117-52.383-117-117 52.383-117 117-117 117 52.383 117 117z" fill="#ffc143"/><path d="M295.734 160.107a7.5 7.5 0 1 1-15 0 7.5 7.5 0 0 1 15 0zm52.585 112.691a7.5 7.5 0 1 0 0 15 7.5 7.5 0 0 0 0-15zm-9.532-74.676a7.5 7.5 0 1 0 0 15 7.5 7.5 0 0 0 0-15zm-23.287-11.22a7.5 7.5 0 1 0 0 15 7.5 7.5 0 0 0 0-15zm-14.287 148.353a7.5 7.5 0 1 0 0 15 7.5 7.5 0 0 0 0-15zm14.287-24.436a7.5 7.5 0 1 0 0 15 7.5 7.5 0 0 0 0-15z" fill="#ffcd6b"/><path d="M323 256c0 37.003-29.997 67-67 67s-67-29.997-67-67 29.997-67 67-67 67 29.997 67 67z" fill="#ff5757"/><path d="M302.875 256c0 25.888-20.987 46.875-46.875 46.875S209.125 281.888 209.125 256s20.987-46.875 46.875-46.875 46.875 20.987 46.875 46.875z" fill="#f72c2c"/><path d="M248.067 256c0 63.851 10.693 123.221 29.041 172.665A175.705 175.705 0 0 1 256 429.933c-96.06 0-173.933-77.872-173.933-173.933S159.939 82.067 256 82.067c7.145 0 14.189.431 21.108 1.268C258.76 132.779 248.067 192.149 248.067 256z" fill="#0573cf"/><path d="M222.288 426.667C142.362 410.97 82.067 340.526 82.067 256s60.295-154.97 140.221-170.667C181.332 124.851 154.979 186.604 154.979 256s26.353 131.149 67.309 170.667z" fill="#005aaf"/><path d="M206.191 272.617c0 25.24-20.461 45.702-45.702 45.702H93.565C86.138 298.972 82.067 277.962 82.067 256c0-38.104 12.253-73.345 33.033-102h4.659c25.241 0 45.702 20.461 45.702 45.702a45.502 45.502 0 0 1-8.982 27.213h4.01c25.241 0 45.702 20.461 45.702 45.702zm48.636-147.76c-25.241 0-45.702 20.461-45.702 45.702 0 23.434 17.638 42.748 40.362 45.393 2.297-32.153 7.322-62.774 14.646-91.095z" fill="#00c53b"/><path d="M256 74.567c-.583 0-1.166.003-1.748.009a7.634 7.634 0 0 0-.372-.009c-.992 0-1.982.024-2.969.071-95.61 2.646-172.971 79.623-176.235 175.08a7.498 7.498 0 0 0-.058 2.054 185.646 185.646 0 0 0-.049 4.228c0 98.34 78.645 178.657 176.343 181.361.987.047 1.977.071 2.969.071.125 0 .249-.003.372-.009a203.5 203.5 0 0 0 1.748.009c100.042 0 181.433-81.391 181.433-181.433C437.433 155.957 356.042 74.567 256 74.567zm0 347.866c-1.494 0-2.983-.021-4.468-.06-22.005-1.104-42.932-17.7-59.156-47.016a176.973 176.973 0 0 1-7.045-14.243A1311.882 1311.882 0 0 0 256 363.001l.148-.001c3.963 24.425 9.494 45.23 16.716 58.583-5.546.562-11.172.85-16.864.85zM89.601 259.362a1422.528 1422.528 0 0 0 60.637 5.434c.761 28.394 5.203 55.618 12.912 79.885a1161.41 1161.41 0 0 1-50.865-4.811c-13.905-23.736-22.1-51.205-22.684-80.508zm29.471-97.874c14.645 1.689 29.524 3.1 44.592 4.231-8.261 25.39-12.916 54.096-13.485 84.037a1404.37 1404.37 0 0 1-60.206-5.446c2.135-30.611 12.584-58.969 29.099-82.822zm129.294 91.847a1543.289 1543.289 0 0 1-83.202-2.62c.505-30.172 5.336-58.937 13.952-83.938 24.276 1.502 48.994 2.287 73.969 2.344-2.984 25.142-4.66 53.816-4.719 84.214zm-83.095 12.411a1558.674 1558.674 0 0 0 83.204 2.589c.445 26.905 2.237 54.638 5.49 79.665-25.203-.039-50.151-.792-74.667-2.252-8.301-23.89-13.135-51.247-14.027-80.002zm89.812-111.622a1233.861 1233.861 0 0 1-70.279-2.033 177.925 177.925 0 0 1 7.572-15.448c16.225-29.316 37.151-45.912 59.156-47.016a167.907 167.907 0 0 1 20.403.696c-6.986 14.069-12.765 36.288-16.852 63.801zm-53.338-55.478c-8.189 8.262-15.753 18.555-22.493 30.733-3.768 6.809-7.196 14.061-10.27 21.69a1121.544 1121.544 0 0 1-39.166-3.48c19.039-22.128 43.784-39.212 71.929-48.943zm-78.573 257.53a1195.507 1195.507 0 0 0 45.479 3.927c3.158 7.933 6.697 15.463 10.601 22.518 6.74 12.179 14.304 22.472 22.493 30.734-31.545-10.908-58.819-31.05-78.573-57.179zm165.814 62.973c-12.383-16.417-24.907-74.657-25.592-157.034a7.603 7.603 0 0 0-.018-2.625 834.423 834.423 0 0 1-.012-4.487c0-83.009 12.006-143.077 24.425-162.39C364.408 107.492 422.433 175.097 422.433 256c0 80.481-57.421 147.802-133.447 163.149z" fill="#004b94"/><path d="m509.595 249.232-28.791 26.646a7.473 7.473 0 0 1-5.093 1.996 7.478 7.478 0 0 1-5.506-2.406l-26.646-28.79a7.5 7.5 0 0 1 11.008-10.189l13.886 15.003C466.046 136.393 371.667 43.5 256 43.5c-98.446 0-185.62 69.589-207.279 165.468a7.498 7.498 0 0 1-8.968 5.663 7.5 7.5 0 0 1-5.663-8.969c11.188-49.526 39.214-94.492 78.914-126.613C153.292 46.452 204.076 28.5 256 28.5c60.768 0 117.897 23.664 160.866 66.633 42.253 42.253 65.839 98.199 66.614 157.831l15.925-14.74a7.5 7.5 0 0 1 10.19 11.008z" fill="#002c5d"/><path d="M285 256c0 8.284-6.716 15-15 15h-35c-8.284 0-15-6.716-15-15s6.716-15 15-15h35c8.284 0 15 6.716 15 15zm-78.792 55.416h-.203c-.179-14.642-12.105-26.457-26.79-26.457h-1.086a26.698 26.698 0 0 0-18.094 7.033h-22.909c-12.241 0-22.565 8.21-25.766 19.424h-1.569C94.995 311.416 83 323.411 83 338.208 83 353.005 94.995 365 109.792 365h96.416C221.005 365 233 353.005 233 338.208c0-14.797-11.995-26.792-26.792-26.792zM389 366h-35c-8.284 0-15 6.716-15 15s6.716 15 15 15h35c8.284 0 15-6.716 15-15s-6.716-15-15-15zM108 193.5c8.284 0 15-6.716 15-15 0-8.284-6.716-15-15-15H91.5c-8.284 0-15 6.716-15 15 0 8.284 6.716 15 15 15zm289.341-70.018c-3.168-11.265-13.516-19.523-25.794-19.523h-1.086c-12.277 0-22.625 8.258-25.794 19.523C332.322 125.873 323 136.74 323 149.784c0 14.796 11.995 26.792 26.792 26.792h42.425c14.797 0 26.792-11.995 26.792-26.792 0-13.044-9.322-23.911-21.668-26.302z" fill="#afeaf2"/><path d="M476.5 309.974c-11.841 48.662-40.064 92.738-79.47 124.108-40.61 32.329-89.57 49.418-141.587 49.418-60.768 0-117.897-23.664-160.867-66.634-40.13-40.129-63.422-92.611-66.324-148.872l-15.248 16.474a7.476 7.476 0 0 1-5.506 2.406 7.5 7.5 0 0 1-5.502-12.595l26.646-28.79a7.5 7.5 0 0 1 10.599-.41l28.79 26.646a7.5 7.5 0 0 1-10.19 11.009l-14.485-13.407C50.259 380.316 142.747 468.5 255.443 468.5c98.353 0 183.262-66.646 206.482-162.073a7.5 7.5 0 0 1 14.575 3.547zM123.883 411.711a7.492 7.492 0 0 0 2.064.291 7.503 7.503 0 0 0 7.208-5.441l6-21a7.5 7.5 0 0 0-14.423-4.121l-6 21a7.5 7.5 0 0 0 5.151 9.271zm28.5 0a7.492 7.492 0 0 0 2.064.291 7.503 7.503 0 0 0 7.208-5.441l6-21a7.5 7.5 0 0 0-14.423-4.121l-6 21a7.5 7.5 0 0 0 5.151 9.271zm28.5 0a7.492 7.492 0 0 0 2.064.291 7.503 7.503 0 0 0 7.208-5.441l6-21a7.5 7.5 0 0 0-14.423-4.121l-6 21a7.5 7.5 0 0 0 5.151 9.271z" fill="#fff"/></svg>