<svg xmlns="http://www.w3.org/2000/svg" viewBox="0 0 512 512" style="enable-background:new 0 0 512 512" xml:space="preserve"><radialGradient id="a" cx="256" cy="258" r="256" gradientTransform="matrix(1 0 0 -1 0 514)" gradientUnits="userSpaceOnUse"><stop offset=".005" style="stop-color:#33495f"/><stop offset="1" style="stop-color:#2b3e51"/></radialGradient><path style="fill:url(#a)" d="M512 256c0 141.385-114.615 256-256 256-70.295 0-133.973-28.333-180.237-74.203C28.977 391.41 0 327.09 0 256 0 114.615 114.615 0 256 0s256 114.615 256 256z"/><path style="opacity:.5;fill:#ecf0f1;enable-background:new" d="M381.078 426.269a58.003 58.003 0 0 0-7.09-.451c-5.161 0-10.157.69-14.915 1.967-4.302-18.914-17.811-34.315-35.573-41.251.071-.82.115-1.648.115-2.488 0-15.652-12.69-28.344-28.345-28.344-.575 0-1.144.022-1.708.056C289.874 337.637 273.85 324 254.64 324c-17.72 0-32.726 11.607-37.84 27.632-10.73 1.948-18.95 11.02-19.612 22.145-23.444 1.68-43.144 16.837-51.402 37.775-10.41 3.072-19.661 8.831-26.963 16.475-10.261-4.302-21.527-6.685-33.352-6.685a86.25 86.25 0 0 0-22.387 2.945 258.1 258.1 0 0 0 12.68 13.51C122.027 483.667 185.705 512 256 512c80.438 0 152.197-37.11 199.129-95.131-8.613-8.308-20.316-13.43-33.229-13.43-17.264 0-32.389 9.134-40.822 22.83z"/><path style="fill:#e87e04" d="M293.221 374.112C293.221 417.333 256 472 256 472s-37.221-50.667-37.221-97.888c0-20.557 16.664-37.221 37.221-37.221s37.221 16.665 37.221 37.221z"/><path style="fill:#f59d00" d="M280.721 361.611c0 28.705-24.721 65.014-24.721 65.014s-24.72-33.65-24.72-65.014c0-13.653 11.067-24.72 24.72-24.72 13.653.001 24.721 11.067 24.721 24.72z"/><path style="fill:#f2c500" d="M271.887 355.945c0 17.48-15.054 39.591-15.054 39.591s-15.054-20.492-15.054-39.591c0-8.314 6.74-15.054 15.054-15.054 8.314.001 15.054 6.74 15.054 15.054z"/><path style="fill:#ecf0f1" d="M321.688 96.85C320.244 93.807 257 115.9 257 115.9s-63.244-22.094-64.687-19.051c.083.058.171.116.255.174-54.327 114.711 18.622 242.512 18.622 242.512s2.185 4.465 7.589 4.465H295.676c5.404 0 7.476-4.465 7.476-4.465s72.887-127.888 18.455-242.63l.081-.055z"/><path style="fill:#bdc3c7" d="M321.605 96.904c54.434 114.742-18.454 242.631-18.454 242.631S301.08 344 295.676 344H257V115.9c33-2.136 53.462-11.23 64.605-18.996z"/><path style="fill:#e94b35" d="M257 19.118c-24 0-51.583 50.105-64.687 77.731C203.457 104.615 224 113.764 257 115.9c33-2.137 53.543-11.285 64.688-19.051C308.583 69.224 281 19.118 257 19.118z"/><path style="fill:#c23824" d="M257 19.118V115.9c33-2.137 53.543-11.285 64.688-19.051C308.583 69.224 281 19.118 257 19.118z"/><path style="fill:#e87e04" d="m192.639 253.07 26.213 73.479c.924 2.59-.569 4.658-3.318 4.597 0 0-48.944-5.138-48.986 40.823 0 0 .202 4.03-3.423 4.03h-18.856c-2.75 0-5.901-2.062-7.002-4.582 0 .001-40.8-93.36 55.372-118.347z"/><path style="fill:#d55400" d="m321.361 253.07-26.213 73.479c-.924 2.59.569 4.658 3.318 4.597 0 0 48.944-5.138 48.986 40.823 0 0-.202 4.03 3.423 4.03h18.856c2.75 0 5.901-2.062 7.002-4.582 0 .001 40.8-93.36-55.372-118.347z"/><circle style="fill:#e94b35" cx="256.74" cy="182.344" r="47.157"/><path style="fill:#2b3e51" d="M256.741 220.327c-20.944 0-37.983-17.04-37.983-37.983 0-20.944 17.039-37.983 37.983-37.983s37.982 17.039 37.982 37.983c.001 20.943-17.038 37.983-37.982 37.983z"/><path style="fill:#33495f" d="m255.687 220.301 39.01-39.01c-.263-9.582-4.085-18.285-10.197-24.835l-53.646 53.646c6.549 6.113 15.252 9.936 24.833 10.199zM222.164 198.033l50.268-50.267a37.698 37.698 0 0 0-11.147-3.125l-42.245 42.245a37.637 37.637 0 0 0 3.124 11.147z"/><path style="fill:#e87e04" d="M254 253a5 5 0 0 0-5 5v113a5 5 0 0 0 5 5h3V253h-3z"/><path style="fill:#d55400" d="M259 253h-2v123h2a5 5 0 0 0 5-5V258a5 5 0 0 0-5-5z"/><g style="opacity:.5"><path style="fill:#ecf0f1" d="M67.396 227.119c1.946-1.943 3.832-1.303 4.191 1.424l.463 3.513c.359 2.727 2.658 5.979 5.107 7.229l3.157 1.61c2.449 1.25 2.423 3.241-.059 4.426l-3.199 1.525c-2.482 1.185-4.866 4.376-5.297 7.091l-.556 3.5c-.432 2.715-2.333 3.306-4.227 1.311l-2.439-2.57c-1.894-1.994-5.665-3.275-8.381-2.846l-3.5.553c-2.716.429-3.866-1.198-2.554-3.615l1.691-3.114c1.312-2.417 1.365-6.399.118-8.851l-1.607-3.159c-1.247-2.45-.055-4.046 2.649-3.545l3.484.646c2.704.501 6.508-.679 8.454-2.622l2.505-2.506z"/></g><g><path style="fill:#ecf0f1" d="M106.979 100.077c.356-2.728 2.241-3.37 4.189-1.429l3.188 3.178c1.948 1.941 5.753 3.118 8.457 2.614l4.425-.825c2.704-.504 3.897 1.09 2.653 3.543l-2.037 4.014c-1.245 2.453-1.187 6.436.127 8.851l2.152 3.954c1.314 2.416.167 4.043-2.549 3.617l-4.448-.696c-2.717-.426-6.487.859-8.377 2.856l-3.096 3.268c-1.891 1.997-3.793 1.409-4.228-1.307l-.712-4.444c-.435-2.716-2.822-5.904-5.305-7.085l-4.065-1.934c-2.483-1.182-2.512-3.173-.064-4.426l4.008-2.051c2.448-1.253 4.743-4.508 5.099-7.235l.583-4.463z"/></g><g><path style="fill:#ecf0f1" d="M446.601 267.611c.613-2.681 2.55-3.142 4.305-1.024l6.333 7.64c1.755 2.117 5.432 3.648 8.171 3.403l9.883-.887c2.739-.245 3.776 1.454 2.305 3.778l-5.308 8.381c-1.472 2.324-1.792 6.294-.711 8.823l3.896 9.125c1.08 2.529-.216 4.041-2.88 3.36l-9.613-2.458c-2.665-.681-6.539.241-8.611 2.05l-7.474 6.525c-2.072 1.809-3.91 1.043-4.085-1.701l-.633-9.902c-.175-2.745-2.25-6.145-4.61-7.556l-8.516-5.092c-2.36-1.411-2.2-3.396.355-4.411l9.223-3.662c2.556-1.015 5.148-4.038 5.761-6.719l2.209-9.673z"/></g><g style="opacity:.5"><path style="fill:#ecf0f1" d="M402.874 128.743c1.86-2.024 3.771-1.466 4.247 1.243l.646 3.685c.476 2.708 2.91 5.86 5.411 7.005l3.402 1.556c2.501 1.145 2.56 3.135.13 4.424l-3.304 1.754c-2.429 1.289-4.674 4.579-4.989 7.311l-.429 3.716c-.315 2.731-2.19 3.402-4.167 1.49l-2.688-2.6c-1.977-1.912-5.8-3.031-8.495-2.486l-3.666.74c-2.695.545-3.913-1.031-2.706-3.502l1.642-3.36c1.208-2.471 1.09-6.452-.261-8.848l-1.837-3.258c-1.351-2.396-.228-4.04 2.495-3.655l3.704.523c2.723.385 6.473-.957 8.334-2.982l2.531-2.756z"/></g></svg>