<svg height="512" width="512" xmlns="http://www.w3.org/2000/svg"><path d="M128.142 485.751c-8.07.553-15.15 8.931-22.167 7.879-7.604-1.017-19.721-2.898-22.365 6.094-2.84 10.166 10.669 7.934 16.847 8.438 7.948.029 44.324-3.244 42.044-13.238-2.052-5.23-8.225-9.173-14.359-9.173zM150.398 333.112c-24.179-14.36-54.975-16.671-81.437-7.245-10.093 5.611-22.59 29.821-12.543 34.988 9.618 2.847 24.41-7.5 31.161-16.08-1.228 19.998 29.151 17.769 26.055-1.053 9.153 13.454 35.136 10.567 38.602-6.163a3.987 3.987 0 0 0-1.838-4.447z" fill="#fff"/><path d="M471.755 66.67c-21.459-7.39-37.246 23.878-14.384 30.69 19.966 6.865 35.354-23.12 14.384-30.69zM450.835 41.696c3.058-12.924-14.641-16.957-22.455-14.939-8.01 1.179-18.701 12.791-16.299 21.66 6.22 18.562 35.127 7.191 38.754-6.721z" fill="#a02020"/><path d="M194.625 407.723c-1.125-11.654-6.253-41.292-16.269-44.421-18.47.149-22.821 10.415-34.474 20.536-12.899 1.733-26.679-7.343-37.905 3.42-10.859 9.011-8.784 24.303 1.948 31.698 8.588 7.24 10.143 12.811 6.933 24.84-3.988 10.591-.805 24.829 12.392 24.705 19.938-.346 22.231-23.637 28.017-37.755 9.257-15.202 18.941 7.194 29.252 7.164 12.399.17 8.876-20.899 10.106-30.187zM171.003 455.864c-10.878.441-19.551 14.837-8.011 24.02 6.566 5.88 14.054-11.01 17.666-15.429 2.65-5.373-5.745-8.649-9.655-8.591zM80.039 432.98c6.379-4.596 12.998-10.925 6.337-18.288-3.078-2.427-7.634-1.886-11.08-2.647-13.129-4.716-13.922-12.161-7.757-25.133 4.169-8.839 5.1-14.027-3.909-15.044-11.378-4.563-64.803 36.882-28.203 44.961 23.053 4.842-5.892 17.614-.215 31.425 2.375 17.472 26.046 11.94 28.218 28.364 2.913 18.638 25.78 13.569 24.114-3.56-1.704-17.441-30.815-24.448-7.505-40.078z" fill="#78ad45"/><path d="M397.277 133.822c.747-2.713-41.962-9.664-43.519-10.368-2.636-.078-4.71 2.795-3.775 5.28l6.028 17.625c-71.707 22.876-143.528 127.707-149.226 136.161-2.841-.703-16.627-10.821-19.547-7.806-4.343-.127 3.658 41.67 3.049 43.721.217 2.266 2.574 3.954 4.786 3.433 42.452-11.28 50.911-.072 26.973-32.384 54.78-68.411 141.578-124.512 148.026-128.624 3.108 2.552 10.82 17.679 15.254 8.982.028-1.432 14.71-35.701 11.951-36.02z" fill="#ffbf48"/><path d="M438.323 118.67c74.861 6.041 103.974-111.78 16.65-114.836-78.804.433-94.808 105.241-16.65 114.836zm27.551-51.877c20.995-.742 18.975 30.343-2.84 30.32-23.688-.294-18.943-30.753 2.84-30.32zM415.44 37.631c4.48-6.816 10.468-10.493 17.568-10.325 30.009 1.15 15.144 29.728-7.025 29.815-8.386 1.216-17.969-10.134-10.543-19.49zM83.196 260.547c-.969-1.371-1.726-2.381-3.108-3.33a210.757 210.757 0 0 1-13.637-10.198 212.51 212.51 0 0 1-7.19-6.112c-1.808-1.608-3.82-3.863-6.49-3.797-18.789 1.691-24.285 12.449-29.599 22.854-4.369 10.422-20.892 23.691 3.094 19.772-13.963 6.189-23.308 23.106-20.802 38.722.288 1.911 2.009 3.374 3.939 3.357a3.988 3.988 0 0 0 3.351-1.827c5.07-7.862 14.8-11.149 24.248-14.341 10.081-3.418 20.463-6.937 25.478-16.077-16.688 39.274 31.109.856 20.716-29.023z" fill="#c13030"/><path d="M75.656 238.173c9.142 9.036 28.789 10.799 35.15-1.592a3.995 3.995 0 0 0-1.49-3.125c-11.266-9.08-20.795-19.68-31.975-28.941-10.988-7.129-15.39 24.076-1.685 33.658z" fill="#c0c5d7"/><path d="M142.006 226.763c-2.795-1.224-13.474 6.033-11.595 9.509l4.461 29.508c2.314 7.598 9.684.064 13.483-2.229 4.301-.133-2.599-37.305-6.349-36.788z" fill="#dcdeea"/><path d="M49.711 179.319c.234-.048 26.504 6.671 25.631 5.515-4.455 7.719-3.118 17.714 1.015 20.181 13.289 10.863 24.526 24.174 38.743 34.058 2.902 1.692 9.585.143 10.344-3.92a3.991 3.991 0 0 0-1.503-3.625c-16.261-11.189 3.025-35.275 15.926-34.697 12.081.033 13.774 11.575 20.272 14.36-1.939 1.207-4.08 3.007-3.333 5.52-.079-.292 5.87 29.4 6.101 30.352 4.382 7.634 12.281-3.888 17.022-6.099 11.015-6.787 20.74-17.383 22.587-29.592 1.131-8.099-.052-19.892-7.954-23.765 33.718-24.206 68.36-49.269 99.775-76.891 5.265-6.913-1.133-17.916-3.608-21.015-6.625-8.267-15.27-15.02-25.629-17.809-11.842 6.076-22.147 20.237-35.933 22.127-5.487.086-8.865-6.943-5.483-11.253 1.354-3.516 8.107-5.627 6.196-10.232a3.994 3.994 0 0 0-4.385-2.264c-36.686 8.473-60.525 25.781-96.331 55.766-10.8-25.943-42.444-2.867-59.25 12.927a3.99 3.99 0 0 0 1.917 6.744c9.263 1.448 17.308 6.936 25.587 10.066-4.251 4.471-8.275 9.004-11.806 13.438.214-4.804-31.864-14.777-34.294-10.326-5.642 6.789-14.912 18.03-1.607 20.434zm202.898-74.77c4.461-5.758 14.903-4.587 14.895 3.97-.929 14.699-23.788 8.636-14.895-3.97zm-21.768 15.706c4.467-5.805 14.925-4.644 14.924 3.939-.902 14.665-23.766 8.666-14.924-3.939zm-22.376 17.316c12.89-12.984 22.861 11.571 5.522 12.695-6.712.542-9.569-8.808-5.522-12.695zm-22.929-28.478c4.458-5.755 14.912-4.583 14.888 3.972-.928 14.706-23.794 8.635-14.888-3.972zm-2.011 45.497c4.481-5.751 14.883-4.567 14.883 3.972-.92 14.704-23.807 8.631-14.883-3.972zm-19.727-29.821c4.459-5.755 14.91-4.584 14.888 3.972-.928 14.705-23.794 8.635-14.888-3.972zm-2.689 47.182c12.88-12.972 22.861 11.543 5.535 12.696-6.725.542-9.585-8.803-5.535-12.696zm-19.755-29.784c12.835-13.091 22.937 11.474 5.588 12.651-6.732.574-9.593-8.748-5.588-12.651zm-10.649 15.271c7.838 3.948 2.878 16.462-5.354 15.581-13.957-1.181-5.739-20.68 5.354-15.581zm-30.502 20.998c7.631-6.394 18.075 3.377 11.039 11.368-8.752 8.663-20.73-3.535-11.039-11.368z" fill="#dcdeea"/><g fill="#65beef"><path d="M260.2 99.904c-11.419-.773-14.957 18.143-1.942 18.311 12.515.306 13.788-18.01 1.942-18.311zM229.383 95.051c10.319-1.808 18.724-9.514 26.945-15.8 13.879-9.377-6.5-12.215-13.838-10.336-7.195 3.029-15.337 6.463-19.588 13.23-3.976 5.046.083 13.117 6.481 12.906zM238.463 115.579c-11.414-.775-14.957 18.12-1.972 18.307 12.526.316 13.834-17.997 1.972-18.307zM205.736 144.606c2.189 11.524 20.347 6.063 18.62-3.605-.85-13.229-21.228-8.269-18.62 3.605zM180.796 161.629c2.026 10.528 19.125 7.623 18.603-3.096-.969-14.646-21.05-8.36-18.603 3.096zM182.821 116.128c2.19 11.524 20.344 6.062 18.617-3.606-.857-13.239-21.204-8.27-18.617 3.606zM158.379 178.989c2.026 10.529 19.123 7.627 18.604-3.095-.97-14.645-21.048-8.361-18.604 3.095zM161.082 131.802c2.188 11.512 20.346 6.069 18.617-3.606-.856-13.237-21.202-8.268-18.617 3.606zM138.666 149.164c2.19 11.526 20.341 6.048 18.62-3.606-.851-13.24-21.209-8.271-18.62 3.606zM130.33 234.156a266.9 266.9 0 0 0 12.487-8.959c1.652 10.242 4.934 20.543 5.84 31.073 2.495 7.998 9.848-.115 14.122-2.735 4.561-1.262-4.756-31.22-4.384-34.033-.326-1.713-1.841-3.083-3.588-3.179 12.349-6.439-9.564-22.04-14.984-20.486-9.209-.624-25.705 14.112-22.921 26.265.997 5.051 6.977 14.548 13.428 12.054zM117.097 167.363c2.189 11.509 20.346 6.068 18.617-3.607-.857-13.238-21.204-8.269-18.617 3.607zM112.044 177.822c-6.269-6.211-18.207.651-16.181 9.281 4.332 14.979 26.271 1.629 16.181-9.281zM96.272 156.449c-1.504-5.549-27.972-15.321-32.49-11.497-3.219 3.768-13.146 10.82-4.92 14.205 9.521 1.531 18.342 5.721 27.27 8.991 2.558.223 10.628-8.882 10.14-11.699z"/></g><path d="M89.547 244.013c-9.66-1.821-17.343-8.482-20.55-17.819a3.99 3.99 0 0 0-4.586-2.609l-14.32 2.981c-3.238.568-4.308 5.101-1.645 7.046l36.038 28.2a3.987 3.987 0 0 0 2.458.847c5.493.435 4.583-10.937 5.796-14.046a3.989 3.989 0 0 0-3.191-4.6z" fill="#494a57"/><path d="M79.402 506.061c6.891.886 3.351-8.799 9.039-10.827 5.965-2.407 11.619-1.192 17.756-.986 7.448 1.243 13.807-6.117 21.878-7.503 11.962.004 11.223 9.478 16.993 10.584 4.467-1.397 25.482-12.809 18.439-18.321-10.743-8.923-2.295-21.587 7.555-22.162 3.349-.489 6.215 2.727 9.497 3.308 6.384-1.569 7.093-12.719 9.624-18.273.758-2.453-1.283-5.143-3.84-5.072-12.178 1.571-21.082-23.532-31.994-6.443-4.383 8.489-4.529 18.76-9.834 26.508-5.246 9.542-20.736 16.048-28.513 4.492-3.013-5.306-1.581-11.361-.213-17.144 6.048-18.2-4.597-21.36-14.38-34.172-7.097-11.826 7.384-28.734 18.795-27.342 7.895.008 16.149 3.809 24.324 1.939 3.413-1.626 5.517-5.112 7.793-7.931 10.013-14.358 30.395-9.146 25.443-18.469-3.535-4.598-22.189-29.077-27.093-19.116-2.965 8.451-11.765 12.233-19.171 12.233-6.95 1.816-15.813-9.747-18.978-1.861-3.073 10.328-19.474 11.532-23.299.887-.762-2.681-4.401-3.711-6.448-1.786-9.017 7.481-23.201 17.124-28.666 8.437-1.388-4.233.63-11.926 4.907-18.709 2.281-3.299-1.898-7.699-5.312-5.613-75.388 40.918-61.414 159.217 25.698 173.342zM27.408 396.699c7.871-11.532 21.443-23.814 36.022-23.814 7.792 1.191 7.567 3.351 3.283 13.431-7.481 12.453-3.677 25.947 12.052 27.197 12.579.635 12 11.46.796 18.575-4.41 3.437-8.969 6.99-9.471 11.926-.184 12.144 15.869 16.641 16.396 28.576 2.208 8.983-8.907 19.744-17.265 13.046-5.27-4.327-4.241-13.761-9.597-18.585-8.475-6.158-21.441-6.513-23.37-18.69-2.338-8.585 3.6-15.405 8.258-21.123 7.55-17.761-33.118-5.057-17.104-30.539z" fill="#86cefd"/><g><path d="M171.709 346.227c-46.47-47.25-135.477-39.913-163.81 33.444-21.767 56.356 6.616 91.482 23.096 105.976 29.352 26.135 75.233 32.943 111.3 16.827 58.764-24.937 73.419-110.945 29.414-156.247zm16.601 86.28c-4.222 2.993-7.132 1.061-12.919-4.217-7.96-7.971-15.97-10.359-23.514.343-4.633 8.422-4.658 18.908-9.921 26.671-3.988 7.736-17.224 13.828-23.441 4.437-2.303-4.267-1.143-9.203.2-14.914 3.41-12.771 2.118-20.208-8.22-28.917-2.582-2.366-5.021-4.6-6.452-7.276-2.984-5.578-.968-13.797 4.478-18.308 7.487-6.134 13.756-4.895 21.016-3.457 4.811.908 10.13 2.084 15.575.781 3.773-1.517 6.13-4.613 8.209-7.345 5.702-8.088 15.559-13.146 25.43-13.014 6.297 11.118 10.615 24.609 11.901 40.746-.05 8.985-.892 17.112-2.342 24.47zm-70.331-107.014c10.136 1.731 20.633 5.327 30.401 11.056-3.98 15.216-26.904 15.525-33.176 2.046-1.849-3.945-8.054-1.196-6.379 2.821 1.848 4.677 1.329 8.459-1.503 10.937-3.066 2.681-8.25 3.226-11.802 1.241-3.285-1.835-4.578-5.429-3.74-10.394.656-3.854-4.691-5.673-6.523-2.219-4.262 8.019-21.872 18.454-27.306 16.187-1.711-.714-1.74-4.492-.085-9.877 2.64-5.992 6.467-13.331 12.416-17.662 15.942-5.583 32.662-6.704 47.697-4.136zM14.362 382.315c8.266-22.388 24.555-36.806 41.281-46.109-6.543 10.369-9.076 23.991-.384 27.404 9.444 3.099 21.919-4.727 30.158-12.018 4.492 14.236 27.248 13.091 30.959-1.08 12.29 9.215 32.791 4.944 38.056-10.057 7.473 5.269 14.342 11.916 20.062 20.079-9.747 1.081-19.11 6.057-25.273 13.673-1.919 2.34-3.986 5.693-6.392 6.826-13.916 1.174-24.023-8.096-38.745 3.906-8.016 6.639-10.737 18.494-6.194 26.987 1.991 3.726 4.991 6.473 7.892 9.131 8.457 7.146 8.874 11.511 6.139 22.172-1.482 6.279-3.152 13.477.613 20.108 8.377 13.962 28.978 8.1 35.528-4.643 5.506-8.105 5.626-18.231 9.842-26.524 1.277-1.67 3.103-3.592 4.829-3.755 2.185-.205 5.131 2.455 7.957 5.032 3.842 3.504 9.161 8.356 15.651 7.348-1.582 5.627-3.548 10.728-5.782 15.371-16.903-12.371-36.285 12.992-19.499 25.997a83.806 83.806 0 0 1-15.987 11.174c-3.478-8.246-15.359-13.893-23.071-9.364-17.172 10.085-19.876 2.009-35.202 7.61-3.83 2.012-6.612 6.233-6.546 10.584-46.209-10.086-91.669-50.035-65.892-119.852zm73.277 121.057c-.393-.674-.549-1.346-.276-2.291 1.988-5.506 8.351-4.55 13.618-4.045 9.05 2.101 15.893-2.383 23.659-6.601 4.7-2.552 12.194.954 14.142 5.946-15.961 6.963-33.847 9.165-51.143 6.991zm78.418-26.041a3.48 3.48 0 0 0-.575-.562c-3.772-2.86-4.145-6.125-3.795-8.36 1.345-6.778 8.847-11.852 15.53-5.97-3.381 5.76-7.183 10.693-11.16 14.892z"/><path d="M82.521 489.484c5.813-3.605 9.052-10.583 7.949-17.056-.297-7.361-5.087-12.239-9.32-16.548-3.725-3.792-6.947-7.073-7.095-11.462.334-3.245 4.211-6.262 7.963-9.181 5.786-4.503 14.53-11.307 7.478-21.642-3.53-4.192-8.911-3.299-13.335-4.423-12.621-3.207-10.419-11.157-5.816-21.198 4.27-8.659 5.722-17.192-5.491-19.04-16.762-.813-32.11 12.818-40.812 25.62-8.559 14.414-3.457 22.078 10.441 25.126 2.625.708 6.593 1.777 7.117 2.972.167.381.276 1.441-.673 2.848-4.469 6.625-11.019 13.887-8.599 23.551 2.583 14.632 15.98 14.981 25.021 21.276 4.09 5.281 3.383 13.747 9.421 18.456 4.745 3.671 10.683 3.855 15.751.701zm-15.242-13.92c-2.74-10.035-6.03-11.971-15.355-15.906-7.417-3.176-11.886-5.517-12.795-12.187-1.9-7.04 3.929-12.576 7.795-18.362 6.14-9.188-1.645-14.172-10.625-16.169-9.929-2.505-12.029-4.43-6.41-14.572 11.476-16.85 25.441-22.667 34.092-22.504 1.725.301 2.404.775 2.521.991.621 1.139-1.283 5.446-2.542 8.297-6.443 13.128-6.872 25.223 10.131 30.691 2.955.95 7.998-.009 9.854 2.008 3.299 3.586.963 6.292-6.214 11.876-14.522 10.32-13.337 19.562-1.56 31.044 4.091 4.105 7.357 7.602 7.391 12.679 1.267 6.363-5.922 14.517-12.427 9.884-1.986-1.649-2.853-4.487-3.856-7.77zM293.13 87.921c-25.476-33.325-73.915-23.93-110-4.238-7.688 4.195-30.111 18.24-52.543 37.11-23.796-31.633-76.242 27.286-87.831 44.595-5.629 6.852-2.775 15.783 6.197 16.827l22.126 5.246c-1.829 4.408-2.668 9.913-1.141 13.862-4.837 6.425-6.532 13.11-6.089 19.323l-21.73 4.524c-2.839.494-3.766 4.466-1.44 6.165l5.054 3.955c-15.45 3.671-20.728 14.227-25.436 23.665-3.586 7.19-6.683 13.4-13.797 16.408-3.08 1.184-2.643 6.008.598 6.62a58.099 58.099 0 0 0 8.508 1.244c-4.395 3.931-7.954 8.933-10.338 14.682-4.411 10.639-4.168 22.324.666 32.061 1.372 2.99 6.112 2.285 6.565-.958 3.094-18.962 27.824-18.539 41.98-27.444a41.025 41.025 0 0 1-4 5.534c-2.176 2.431.181 6.426 3.364 5.69 19.622-3.676 35.006-25.125 33.426-45.007 1.976 1.609 5.196.342 5.557-2.172l3.012-17.328c5.592-.452 11.348-2.696 16.684-7.396 1.392 1.133 2.919 2.039 4.786 1.877 3.364 0 7.026-1.521 10.525-3.514l4.895 32.361c.299 2.444 3.331 3.809 5.358 2.4a787.021 787.021 0 0 0 46.194-32.588c18.589-10.942 29.029-35.895 15.586-53.944 32.326-23.579 66.196-47.244 95.674-74.168a11.315 11.315 0 0 0 3.62-6.991c.683-5.721-1.385-12.176-6.03-18.401zm-48.988-15.368c3.954-.497 8.403.362 12.816 1.081-8.28 6.564-16.802 14.063-26.547 17.3-3.806.918-6.618-3.431-4.214-6.54 3.575-5.816 11.186-9.007 17.945-11.841zM113.054 118.56h.069c5.136.02 9.103 2.245 12.123 6.786-9.814 8.486-19.526 17.542-28.046 26.46-7.487-4.673-15.858-8.061-24.502-9.998 12.963-12.665 31.102-23.918 40.356-23.248zm-46.425 29.191a72.09 72.09 0 0 1 25.7 9.286 215.808 215.808 0 0 0-6.192 7.126 109.116 109.116 0 0 0-26.497-8.923 208.683 208.683 0 0 1 6.989-7.489zm-16.248 27.628c-4.321-.392-4.407-2.883-1.873-6.034 1.44-2.209 3.464-4.936 5.905-7.95a102.177 102.177 0 0 1 27.274 8.373c-2.963 3.914-5.497 7.688-7.499 11.256zm11.751 126.774c2.592-5.066 4.318-10.587 5.018-16.202.606-4.079-5.603-5.456-6.784-1.505-3.295 10.193-13.68 13.708-24.674 17.43-9.744 3.298-20.481 6.932-26.287 15.951-2.325-14.478 7.312-31.174 21.237-35.481a3.49 3.49 0 0 0 2.271-4.174c-2.375-5.478-10.797-.395-15.566-1.83 12.73-13.487 10.952-33.022 35.784-35.262.34-.031 1.493 1.145 1.809 1.388 1.128.864 2.232 1.761 3.348 2.641l6.496 5.125c4.831 3.811 9.717 7.578 14.557 11.354 3.975 14.734-3.655 32.89-17.209 40.565zm24.814-43.478-36.045-28.203 14.321-2.982c3.661 10.647 12.474 18.346 23.59 20.445zm-8.599-23.443c-7.093-6.481-10.798-17.421-4.035-27.999.162.124.325.245.486.358 11.055 9.158 20.771 19.927 32.014 28.977-9.976 7.894-21.318 5.196-28.465-1.336zm49.783-4.401c-.088-.065-.166-.139-.262-.196-7.476-4.427-9.659-12.68-4.318-19.677 5.65-7.629 11.53-11.474 16.991-11.111 5.058.333 10.099 4.417 14.282 11.522a1657.918 1657.918 0 0 0-19.699 14.62c-2.266 1.494-4.454 3.155-6.994 4.842zm10.683 34.349-4.499-29.742c-.017-.112-.055-.214-.082-.322 2.236-1.615 4.433-3.037 6.464-4.58a201.902 201.902 0 0 1 5.409 29.724c-2.428 1.649-4.853 3.303-7.292 4.92zm13.808-9.397a208.592 208.592 0 0 0-5.871-29.662c-.009-.033-.026-.061-.036-.093 2.577-1.918 5.166-3.833 7.763-5.744l5.988 30a771.482 771.482 0 0 1-7.844 5.499zm45.961-45.092c-1.7 9.73-8.613 19.246-18.04 24.836-4.596 3.421-9.185 6.888-13.856 10.259-.027-.089-5.964-29.972-6.008-30.048 11.218-8.192 22.414-16.218 33.516-24.185 4.082 5.616 5.601 12.195 4.388 19.138zm90.873-101.008c-40.465 35.262-85.55 65.965-128.963 97.553-5.398-8.916-12.106-13.868-19.491-14.354-5.541-.366-14.046 1.755-23.059 13.922-6.977 9.08-5.297 20.956 3.539 27.868-1.535.687-2.947 1.129-4.1 1.125-13.89-9.645-25.316-23.125-38.506-33.873-20.942-19.917 98.728-106.989 106.881-111.768 12.829-7.52 26.937-13.355 40.496-15.974-2.247 1.759-4.255 3.807-5.809 6.257-5.296 7.362.014 17.681 9.001 17.571 11.172-1.55 20.168-9.897 28.789-16.458 2.305-2.043 4.876-3.51 6.862-5.669 8.043 2.895 15.964 7.914 22.486 16.272 1.143 1.532 3.985 5.73 4.603 10.299a8.154 8.154 0 0 1-2.729 7.229z"/><path d="M97.828 175.231c-9.095 6.533-5.439 21.614 6.318 21.481 6.56-.006 13.523-4.8 13.307-12.833-.294-10.694-11.596-14.58-19.625-8.648zm12.651 8.932c.38 5.408-9.333 8.313-10.72 2.076-1.106-7.153 10.73-9.924 10.72-2.076zM114.135 167.826c1.182 6.253 6.766 9.881 12.931 9.067 5.826-.687 11.88-5.368 11.623-12.733-.223-4.787-2.512-8.553-6.28-10.335-8.888-4.094-20.273 3.804-18.274 14.001zm9.101-6.718c9.014-5.77 12.156 7.676 3.013 8.853-1.323.156-4.488.131-5.256-3.44-.397-2.792.996-4.483 2.243-5.413zM135.707 149.624c1.183 6.253 6.765 9.881 12.93 9.068 5.827-.686 11.881-5.368 11.623-12.733-.223-4.787-2.512-8.554-6.28-10.335-8.84-4.12-20.309 3.851-18.273 14zm9.1-6.717c9.013-5.771 12.156 7.677 3.014 8.853-1.332.16-4.487.132-5.255-3.44-.398-2.792.995-4.483 2.241-5.413zM158.122 132.266c1.183 6.253 6.765 9.882 12.93 9.068 5.827-.687 11.881-5.368 11.623-12.733-.223-4.787-2.512-8.554-6.28-10.335-8.89-4.094-20.273 3.803-18.273 14zm9.1-6.717c9.01-5.772 12.158 7.676 3.014 8.853-1.332.155-4.488.13-5.255-3.44-.398-2.793.994-4.484 2.241-5.413zM179.861 116.593c1.183 6.253 6.765 9.882 12.93 9.068 5.827-.686 11.881-5.368 11.623-12.733-.223-4.787-2.512-8.554-6.28-10.335-8.889-4.095-20.272 3.804-18.273 14zm9.1-6.718c9.009-5.773 12.159 7.676 3.014 8.853-1.336.155-4.488.13-5.255-3.44-.398-2.792.995-4.483 2.241-5.413zM202.753 144.913c1.097 6.323 6.74 10.06 12.959 9.229 5.826-.687 11.88-5.368 11.622-12.733-.223-4.786-2.511-8.553-6.279-10.335-8.771-4.091-20.193 3.744-18.302 13.839zm9.128-6.556c9.016-5.769 12.154 7.677 3.014 8.853-1.329.157-4.487.132-5.255-3.44-.398-2.792.996-4.483 2.241-5.413zM225.196 127.716c1.183 6.253 6.766 9.881 12.93 9.068 5.827-.686 11.881-5.368 11.623-12.733-.223-4.787-2.512-8.554-6.28-10.335-8.84-4.121-20.309 3.85-18.273 14zm9.1-6.718c9.012-5.772 12.157 7.677 3.014 8.853-1.331.158-4.487.132-5.256-3.44-.397-2.792.997-4.483 2.242-5.413zM173.698 165.454c-8.771-4.089-20.192 3.743-18.301 13.839 1.098 6.323 6.739 10.059 12.958 9.229 5.827-.686 11.881-5.368 11.623-12.733-.223-4.786-2.512-8.554-6.28-10.335zm-6.159 16.136c-1.336.156-4.487.13-5.256-3.44-.699-5.169 4.758-7.859 8.431-6.385 1.417.67 2.188 2.134 2.289 4.31.126 3.559-3.199 5.248-5.464 5.515zM196.113 148.096c-8.772-4.092-20.191 3.743-18.302 13.838 1.096 6.324 6.74 10.06 12.96 9.23 5.825-.687 11.879-5.368 11.621-12.733-.223-4.787-2.512-8.554-6.279-10.335zm-6.159 16.135c-1.331.154-4.489.132-5.257-3.44-.7-5.17 4.763-7.857 8.432-6.385 1.416.67 2.187 2.134 2.289 4.31.124 3.559-3.2 5.248-5.464 5.515zM246.936 112.043c1.183 6.254 6.766 9.881 12.932 9.068 5.825-.687 11.879-5.368 11.621-12.733-.223-4.786-2.511-8.553-6.279-10.335-8.889-4.098-20.273 3.804-18.274 14zm9.101-6.718c9.013-5.771 12.154 7.676 3.014 8.853-1.329.156-4.488.132-5.257-3.44-.397-2.792.996-4.484 2.243-5.413zM399.188 129.739l-50.003-10.378c-2.547-.615-4.937 2.096-4.011 4.547l7.036 20.565c-48.734 13.966-117.906 90.641-146.395 134.161l-18.942-9.883c-2.37-1.335-5.487.816-5.08 3.506l5.975 50.318c.19 1.982 2.251 3.46 4.186 3.004l46.23-9.749c2.382-.434 3.59-3.466 2.14-5.414l-14.538-20.81c51.188-63.103 128.675-115.031 143.685-124.799l10.605 12.726c1.6 2.048 5.118 1.446 5.951-1.014l15.724-42.142c.767-1.926-.519-4.266-2.563-4.638zm-17.601 38.705-8.731-10.477a3.488 3.488 0 0 0-4.536-.722c-.917.576-92.365 58.38-149.625 130.031a3.49 3.49 0 0 0-.134 4.177l13.018 18.633-37.331 7.873-4.746-39.964 15.841 8.264a3.49 3.49 0 0 0 4.527-1.171c.739-1.119 74.725-112.14 147.828-135.081a3.49 3.49 0 0 0 2.257-4.46l-6.196-18.11 40.029 8.307zM501.551 21.872c-24.553-32.276-81.342-25.004-104.02 5.802-19.349 25.558-18.496 55.478 2.181 76.193 22.123 22.462 58.825 23.825 83.923 4.077 26.921-17.89 38.351-59.667 17.916-86.072zm2.806 41.248c-4.583 30.319-35.927 54.464-65.654 51.584-37.74-3.93-65.492-42.782-35.628-82.79 19.974-27.216 70.991-34.338 92.916-5.823 7.652 10.299 10.623 23.446 8.366 37.029z"/><path d="M453.778 42.307c3.33-14.908-14.54-20.908-26.068-18.465-9.917 1.695-21.516 14.973-18.457 25.59 7.468 21.681 40.037 9.559 44.525-7.125zm-27.049 11.866c-5.37.181-9.022-2.066-10.767-6.678-1.621-6.837 7.049-15.774 13.096-16.805 6.774-1.208 19.508.715 17.97 9.825-2.129 6.887-11.743 13.374-20.299 13.658zM472.655 63.821c-10.611-3.37-24.936 1.666-28.926 14.362-2.887 11.933 4.366 19.676 12.836 22.057 10.675 2.891 23.094-1.482 27.01-13.439 3.91-13.187-3.439-20.621-10.92-22.98zm4.251 20.923c-2.576 8.018-11.405 10.759-18.452 8.777-2.46-.691-10.273-3.706-7.976-13.548 2.4-6.916 10.99-12.362 20.079-9.495 6.147 1.939 8.452 7.166 6.349 14.266zM461.659 20.518c4.658.044 9.299 3.016 11.286 7.229a3.489 3.489 0 1 0 6.312-2.977c-3.14-6.659-10.204-11.176-17.566-11.231-4.576.113-4.616 6.82-.032 6.979zM478.472 36.008l-6.966-5.602a3.49 3.49 0 0 0-4.374 5.44l6.966 5.601a3.473 3.473 0 0 0 2.185.771c3.195.081 4.766-4.229 2.189-6.21zM421.031 89.575c-4.085-1.619-5.712-7.983-2.907-11.364a3.49 3.49 0 1 0-5.525-4.265c-5.588 6.86-2.561 18.691 5.636 22.024 4.237 1.74 6.982-4.43 2.796-6.395zM426.848 83.321a3.49 3.49 0 0 0-1.136 4.803 19.925 19.925 0 0 1 2.924 11.23 3.49 3.49 0 1 0 6.974.305 26.995 26.995 0 0 0-3.958-15.201 3.49 3.49 0 0 0-4.804-1.137z"/></g></svg>