<?xml version="1.0" standalone="no"?>
<!DOCTYPE svg PUBLIC "-//W3C//DTD SVG 20010904//EN"
 "http://www.w3.org/TR/2001/REC-SVG-20010904/DTD/svg10.dtd">
<svg version="1.0" xmlns="http://www.w3.org/2000/svg"
 width="512.000000pt" height="512.000000pt" viewBox="0 0 512.000000 512.000000"
 preserveAspectRatio="xMidYMid meet">
<metadata>
Created by potrace 1.14, written by Peter Selinger 2001-2017
</metadata>
<g transform="translate(0.000000,512.000000) scale(0.100000,-0.100000)"
fill="#000000" stroke="none">
<path d="M763 4945 c-72 -20 -146 -59 -192 -101 l-39 -35 -64 11 c-143 23
-244 7 -280 -43 -28 -39 -34 -106 -14 -145 21 -41 95 -109 169 -157 35 -22 62
-47 62 -55 -2 -25 26 -113 52 -164 31 -61 113 -150 170 -183 114 -67 248 -88
363 -59 67 17 150 54 150 67 0 4 28 -2 63 -13 40 -13 92 -21 147 -22 73 -1 89
2 116 21 62 45 82 141 45 219 -17 35 -68 91 -128 141 -17 14 -22 33 -27 90
-15 189 -134 346 -311 412 -78 29 -210 37 -282 16z m-335 -306 l-2 -27 -38 26
c-21 13 -38 26 -38 29 0 2 18 3 40 1 37 -2 40 -4 38 -29z m921 -395 c28 -35
26 -43 -6 -40 -16 2 -36 4 -46 5 -17 1 -17 2 0 31 21 37 26 37 52 4z"/>
<path d="M2480 4800 l0 -80 -80 0 -80 0 0 -80 0 -80 80 0 80 0 0 -80 0 -80 80
0 80 0 0 80 0 80 80 0 80 0 0 80 0 80 -80 0 -80 0 0 80 0 80 -80 0 -80 0 0
-80z m160 -160 l0 -80 -80 0 -80 0 0 80 0 80 80 0 80 0 0 -80z"/>
<path d="M1760 4560 l0 -80 80 0 80 0 0 80 0 80 -80 0 -80 0 0 -80z"/>
<path d="M3280 4320 l0 -80 80 0 80 0 0 80 0 80 -80 0 -80 0 0 -80z"/>
<path d="M2400 4153 c-30 -3 -140 -23 -206 -37 -50 -10 -207 -67 -284 -103
-302 -140 -567 -401 -714 -705 -51 -104 -106 -264 -132 -384 -12 -54 -18 -134
-20 -257 l-2 -178 -39 -42 c-132 -146 -303 -395 -386 -562 -84 -170 -128 -317
-132 -446 -6 -140 18 -223 87 -312 52 -65 177 -136 270 -152 18 -3 49 -10 70
-14 40 -9 265 -7 343 3 203 28 442 90 686 180 120 44 149 51 174 44 162 -50
295 -68 480 -63 83 2 166 7 185 10 393 72 682 231 926 510 125 142 235 335
296 519 32 96 68 264 68 319 1 40 13 61 70 125 56 62 66 74 120 147 25 33 47
62 50 65 26 24 144 220 195 325 104 213 141 354 133 509 -18 310 -242 439
-683 393 -39 -4 -81 -9 -95 -12 -203 -38 -309 -60 -420 -91 l-65 -17 -89 47
c-164 88 -339 146 -514 170 -87 12 -293 17 -372 9z m1881 -263 c106 -25 153
-60 190 -145 66 -148 -3 -416 -177 -683 -98 -151 -198 -282 -216 -282 -4 0 -8
16 -8 35 0 99 -78 360 -152 507 -80 160 -204 325 -324 433 l-67 60 59 12 c362
78 556 96 695 63z m-3191 -1631 c0 -29 50 -171 89 -255 104 -221 294 -454 481
-587 36 -26 70 -51 75 -55 6 -5 15 -11 21 -13 26 -11 114 -65 114 -70 0 -8
-330 -110 -405 -125 -11 -2 -42 -8 -70 -14 -116 -23 -190 -32 -295 -35 -170
-5 -302 25 -378 86 -188 149 -71 562 291 1032 59 76 76 84 77 36z"/>
<path d="M523 3830 c-27 -11 -43 -40 -43 -78 0 -100 -85 -201 -186 -222 -120
-24 -151 -54 -124 -121 14 -34 32 -43 102 -53 61 -9 98 -28 143 -74 34 -35 48
-68 71 -177 14 -62 74 -82 128 -42 13 9 21 33 27 70 15 117 84 196 187 217
121 25 152 57 119 126 -13 26 -24 34 -54 39 -162 27 -230 89 -253 232 -5 31
-15 63 -22 70 -18 17 -68 24 -95 13z m109 -380 c5 -4 -10 -25 -32 -47 l-39
-41 -39 39 -39 39 36 39 36 39 35 -32 c19 -17 38 -33 42 -36z"/>
<path d="M4530 2313 c-26 -9 -50 -47 -50 -79 0 -60 -30 -122 -80 -167 -47 -43
-84 -58 -172 -72 -98 -15 -80 -155 20 -155 50 0 121 -32 161 -72 41 -42 60
-86 76 -180 7 -45 49 -73 95 -63 36 8 56 38 62 95 13 118 100 205 218 218 25
3 55 11 67 19 30 20 38 64 19 101 -15 30 -25 34 -106 47 -50 9 -93 32 -134 73
-36 35 -56 84 -71 174 -8 50 -57 78 -105 61z m80 -365 l30 -24 -40 -42 -41
-42 -38 41 -39 40 41 40 c33 31 43 36 49 25 5 -8 22 -25 38 -38z"/>
<path d="M4026 1344 c-190 -46 -353 -205 -406 -397 -70 -253 53 -527 289 -645
103 -52 172 -66 286 -59 145 9 260 60 361 163 68 68 123 168 149 268 21 83 14
222 -15 306 -96 273 -385 432 -664 364z"/>
<path d="M2320 800 l0 -80 -80 0 -80 0 0 -80 0 -80 80 0 80 0 0 -80 0 -80 80
0 80 0 0 80 0 80 80 0 80 0 0 80 0 80 -80 0 -80 0 0 80 0 80 -80 0 -80 0 0
-80z m160 -160 l0 -80 -80 0 -80 0 0 80 0 80 80 0 80 0 0 -80z"/>
<path d="M1520 640 l0 -80 80 0 80 0 0 80 0 80 -80 0 -80 0 0 -80z"/>
<path d="M2960 400 l0 -80 80 0 80 0 0 80 0 80 -80 0 -80 0 0 -80z"/>
</g>
</svg>
